<?xml version="1.0" standalone="no"?>
<!DOCTYPE svg PUBLIC "-//W3C//DTD SVG 20010904//EN"
 "http://www.w3.org/TR/2001/REC-SVG-20010904/DTD/svg10.dtd">
<svg version="1.0" xmlns="http://www.w3.org/2000/svg"
 width="435.000000pt" height="131.000000pt" viewBox="0 0 435.000000 131.000000"
 preserveAspectRatio="xMidYMid meet">

<g transform="translate(0.000000,131.000000) scale(0.100000,-0.100000)"
fill="#000000" stroke="none">
<path d="M490 1237 c-105 -32 -173 -71 -252 -147 -125 -121 -179 -245 -181
-415 -1 -187 49 -314 172 -435 176 -175 409 -224 640 -135 152 58 295 212 340
365 7 25 17 58 22 74 5 16 9 66 9 112 0 128 -32 232 -107 346 -137 209 -404
306 -643 235z m320 -130 c135 -50 231 -150 291 -307 19 -47 19 -233 0 -280
-44 -116 -123 -217 -208 -267 -99 -58 -262 -81 -368 -52 -56 15 -165 71 -165
84 0 5 66 77 148 158 l148 147 44 -45 c24 -25 47 -42 51 -37 4 4 44 99 89 211
45 113 88 218 97 234 8 16 11 27 6 24 -16 -9 -339 -164 -390 -187 -29 -13 -53
-27 -53 -32 0 -4 14 -22 30 -40 17 -17 30 -36 30 -42 0 -18 -290 -297 -302
-290 -20 13 -67 128 -79 196 -40 221 102 461 313 530 94 31 227 29 318 -5z"/>
<path d="M2708 1074 c-33 -18 -48 -43 -48 -83 0 -43 -9 -61 -32 -61 -16 0 -19
-6 -16 -37 2 -31 7 -39 26 -41 21 -3 22 -7 22 -123 l0 -119 45 0 45 0 0 119 0
120 38 3 c35 3 37 5 40 41 l3 37 -41 0 -41 0 3 38 c3 34 6 37 36 40 30 3 32 6
32 43 l0 39 -42 0 c-24 -1 -55 -7 -70 -16z"/>
<path d="M2864 1065 c-26 -39 -6 -75 41 -75 28 0 38 5 47 25 15 32 -12 75 -47
75 -15 0 -31 -10 -41 -25z"/>
<path d="M2270 845 l0 -235 45 0 45 0 0 105 c0 92 3 108 20 125 24 24 57 26
88 4 20 -14 22 -23 22 -125 l0 -109 46 0 46 0 -4 128 c-4 139 -12 160 -64 188
-38 20 -106 15 -135 -12 -19 -17 -19 -15 -19 74 l0 92 -45 0 -45 0 0 -235z"/>
<path d="M3608 990 c2 -49 1 -90 -4 -90 -4 0 -16 7 -26 16 -28 26 -106 29
-148 6 -70 -38 -99 -146 -61 -227 22 -48 44 -68 94 -86 31 -11 43 -11 75 0 20
8 45 20 55 29 15 14 17 13 17 -6 0 -19 6 -22 40 -22 l40 0 0 235 0 235 -42 0
-43 0 3 -90z m-41 -145 c12 -8 27 -31 33 -49 30 -92 -89 -153 -144 -74 -25 35
-20 76 13 109 33 32 65 37 98 14z"/>
<path d="M1380 840 l0 -230 45 0 44 0 3 83 3 82 70 5 c81 6 109 19 135 63 24
39 26 116 5 158 -29 56 -66 69 -192 69 l-113 0 0 -230z m210 130 c27 -27 26
-75 -2 -94 -13 -9 -43 -16 -70 -16 l-48 0 0 65 0 65 50 0 c37 0 55 -5 70 -20z"/>
<path d="M2070 975 c0 -38 -3 -45 -20 -45 -16 0 -20 -7 -20 -36 0 -27 5 -37
20 -41 18 -5 20 -14 20 -89 0 -45 4 -94 10 -108 13 -36 68 -60 114 -52 33 6
36 10 36 41 0 31 -3 34 -32 37 l-33 3 -3 83 -3 82 36 0 c34 0 35 1 35 40 0 39
-1 40 -35 40 -35 0 -35 0 -35 45 l0 45 -45 0 -45 0 0 -45z"/>
<path d="M1784 926 c-28 -13 -64 -50 -64 -67 0 -4 14 -12 30 -19 26 -11 33
-10 48 4 42 37 101 27 116 -22 7 -22 6 -22 -72 -22 -70 0 -82 -3 -106 -25 -35
-32 -37 -101 -3 -132 50 -46 85 -53 145 -27 37 15 49 16 45 2 -2 -5 15 -8 37
-8 l40 0 0 128 c0 143 -7 164 -66 188 -42 18 -109 17 -150 0z m136 -196 c0
-20 -49 -60 -74 -60 -23 0 -56 23 -56 39 0 4 5 12 12 19 15 15 118 16 118 2z"/>
<path d="M3133 920 c-27 -16 -33 -17 -33 -5 0 11 -12 15 -45 15 l-45 0 0 -160
0 -160 45 0 45 0 0 105 c0 92 3 108 20 125 11 11 31 20 45 20 14 0 34 -9 45
-20 17 -17 20 -33 20 -125 l0 -105 43 0 42 0 -5 136 -5 136 -33 29 c-39 35
-91 39 -139 9z"/>
<path d="M3815 921 c-47 -21 -71 -53 -84 -110 -28 -126 91 -236 218 -202 25 6
56 22 69 35 l23 23 -26 17 c-24 16 -33 16 -71 6 -24 -7 -54 -10 -68 -6 -26 6
-56 31 -56 47 0 5 51 9 116 9 l116 0 -4 60 c-3 46 -10 66 -29 86 -50 55 -131
69 -204 35z m118 -62 c22 -12 37 -28 37 -41 0 -5 -34 -8 -75 -8 -41 0 -75 4
-75 9 0 15 51 51 72 51 11 0 29 -5 41 -11z"/>
<path d="M4222 930 c-12 -5 -25 -16 -28 -25 -9 -22 -24 -19 -24 5 0 16 -7 20
-35 20 l-35 0 0 -160 0 -160 39 0 39 0 4 96 c3 91 5 97 31 120 16 14 41 24 58
24 28 0 29 2 29 45 0 43 -1 45 -27 44 -16 0 -38 -4 -51 -9z"/>
<path d="M2860 770 l0 -160 45 0 45 0 0 160 0 160 -45 0 -45 0 0 -160z"/>
<path d="M1970 322 c0 -126 2 -231 5 -233 2 -3 20 -3 40 -1 26 3 35 9 35 23 0
17 3 16 36 -6 129 -87 272 66 209 223 -30 73 -131 113 -195 77 -14 -8 -28 -14
-32 -15 -5 0 -8 36 -8 80 l0 80 -45 0 -45 0 0 -228z m205 2 c69 -32 66 -129
-4 -155 -56 -22 -111 20 -111 83 0 38 38 80 78 87 2 1 19 -6 37 -15z"/>
<path d="M1460 366 c0 -145 -3 -177 -16 -190 -21 -22 -50 -20 -75 5 l-20 20
-35 -21 c-40 -25 -41 -29 -13 -59 60 -64 195 -53 235 21 10 16 13 77 14 211
l0 187 -45 0 -45 0 0 -174z"/>
<path d="M1680 398 c-80 -41 -111 -139 -70 -222 41 -85 146 -119 234 -76 127
61 128 244 2 301 -55 25 -112 24 -166 -3z m147 -90 c46 -43 21 -128 -42 -144
-31 -8 -82 12 -95 37 -13 24 -13 75 1 100 23 43 94 47 136 7z"/>
<path d="M2379 397 c-30 -20 -34 -28 -37 -74 -3 -45 0 -53 24 -72 15 -12 51
-28 81 -37 55 -16 77 -39 52 -55 -22 -14 -58 -11 -88 7 -26 15 -30 15 -54 -1
-15 -9 -27 -21 -27 -26 0 -16 42 -47 72 -53 113 -23 188 17 188 100 0 52 -26
76 -101 95 -59 15 -77 32 -59 54 16 19 45 19 75 -1 23 -15 26 -14 55 6 26 19
29 24 18 38 -38 45 -145 56 -199 19z"/>
</g>
</svg>
